<svg width="14" height="23" viewBox="0 0 14 23" fill="none" xmlns="http://www.w3.org/2000/svg">
<path d="M6.62695 0.703613C8.88088 0.703613 10.5694 1.46788 11.707 2.87939C12.8583 4.30788 13.5 6.4664 13.5 9.35107C13.5 12.358 12.7546 15.3269 11.4629 17.5854L11.1973 18.0269C9.44902 20.7966 6.92381 22.2529 3.86719 22.2944V21.7222C5.90857 21.6801 7.4747 20.695 8.54492 19.4077C9.5619 18.1844 10.1501 16.6725 10.2959 15.3833L10.3184 15.1284C10.3971 13.9842 10.1483 13.2316 9.74316 12.7524C9.34799 12.2851 8.86812 12.1541 8.62109 12.1177H8.62207C8.6205 12.1174 8.61875 12.117 8.61719 12.1167C8.61425 12.1163 8.61127 12.1161 8.6084 12.1157H8.60742L8.48633 12.1069C8.31135 12.107 8.15161 12.1594 8.03223 12.2075C7.90952 12.257 7.77822 12.3238 7.65918 12.3833C7.2254 12.6002 6.69916 12.8607 5.88086 12.8608C4.61489 12.8608 3.34696 12.3505 2.37109 11.4438L2.17969 11.2573C1.0621 10.112 0.458593 8.51375 0.501953 6.74072C0.547324 5.13152 1.19667 3.62121 2.33203 2.48584C3.48224 1.33578 5.00616 0.703687 6.62695 0.703613Z" stroke="#868E96"/>
</svg>
