<svg width="16" height="16" viewBox="0 0 16 16" fill="none" xmlns="http://www.w3.org/2000/svg">
<path d="M7.41667 7.41667L7.44856 7.40111C7.54829 7.35129 7.66021 7.33108 7.77107 7.3429C7.88193 7.35471 7.98709 7.39805 8.07408 7.46778C8.16107 7.5375 8.22626 7.6307 8.26193 7.73632C8.2976 7.84195 8.30225 7.95559 8.27533 8.06378L7.72467 10.2696C7.69756 10.3778 7.70206 10.4915 7.73765 10.5973C7.77324 10.7031 7.83841 10.7964 7.92544 10.8662C8.01247 10.9361 8.11771 10.9795 8.22866 10.9913C8.33962 11.0032 8.45164 10.9829 8.55144 10.933L8.58333 10.9167M15 8C15 8.91925 14.8189 9.82951 14.4672 10.6788C14.1154 11.5281 13.5998 12.2997 12.9497 12.9497C12.2997 13.5998 11.5281 14.1154 10.6788 14.4672C9.82951 14.8189 8.91925 15 8 15C7.08075 15 6.1705 14.8189 5.32122 14.4672C4.47194 14.1154 3.70026 13.5998 3.05025 12.9497C2.40024 12.2997 1.88463 11.5281 1.53284 10.6788C1.18106 9.82951 1 8.91925 1 8C1 6.14348 1.7375 4.36301 3.05025 3.05025C4.36301 1.7375 6.14348 1 8 1C9.85652 1 11.637 1.7375 12.9497 3.05025C14.2625 4.36301 15 6.14348 15 8ZM8 5.08333H8.00622V5.08956H8V5.08333Z" stroke="white" stroke-width="1.8" stroke-linecap="round" stroke-linejoin="round"/>
</svg>
