<svg width="16" height="18" viewBox="0 0 16 18" fill="none" xmlns="http://www.w3.org/2000/svg">
<path d="M4.413 8.18022C4.2314 7.85345 3.94643 7.59624 3.60283 7.44895C3.25923 7.30167 2.87645 7.27265 2.51457 7.36645C2.15269 7.46025 1.8322 7.67157 1.60341 7.96722C1.37463 8.26287 1.25049 8.62613 1.25049 8.99997C1.25049 9.37381 1.37463 9.73706 1.60341 10.0327C1.8322 10.3284 2.15269 10.5397 2.51457 10.6335C2.87645 10.7273 3.25923 10.6983 3.60283 10.551C3.94643 10.4037 4.2314 10.1465 4.413 9.81972M4.413 8.18022C4.548 8.42322 4.62525 8.70222 4.62525 8.99997C4.62525 9.29772 4.548 9.57747 4.413 9.81972M4.413 8.18022L11.5875 4.19472M4.413 9.81972L11.5875 13.8052M11.5875 4.19472C11.6927 4.39282 11.8363 4.56797 12.01 4.70991C12.1837 4.85186 12.3839 4.95776 12.599 5.02143C12.814 5.08509 13.0396 5.10523 13.2626 5.08069C13.4855 5.05614 13.7014 4.98739 13.8974 4.87846C14.0935 4.76953 14.2659 4.62261 14.4045 4.44628C14.5432 4.26995 14.6452 4.06775 14.7048 3.85151C14.7644 3.63526 14.7803 3.40931 14.7515 3.18686C14.7227 2.96442 14.6499 2.74994 14.5373 2.55597C14.3153 2.17372 13.9522 1.89382 13.5261 1.77643C13.1 1.65904 12.6448 1.71352 12.2584 1.92818C11.872 2.14284 11.5853 2.50053 11.4598 2.92436C11.3344 3.34819 11.3802 3.80433 11.5875 4.19472ZM11.5875 13.8052C11.4799 13.999 11.4114 14.2121 11.3861 14.4323C11.3608 14.6525 11.3791 14.8756 11.4401 15.0887C11.501 15.3019 11.6032 15.5009 11.7411 15.6746C11.8789 15.8482 12.0496 15.9929 12.2434 16.1006C12.4372 16.2082 12.6502 16.2767 12.8705 16.302C13.0907 16.3273 13.3138 16.3089 13.5269 16.248C13.74 16.1871 13.9391 16.0848 14.1127 15.947C14.2863 15.8092 14.4311 15.6385 14.5388 15.4447C14.7562 15.0534 14.8092 14.5917 14.6862 14.1612C14.5632 13.7307 14.2742 13.3668 13.8829 13.1493C13.4915 12.9319 13.0298 12.8789 12.5994 13.0019C12.1689 13.1249 11.8049 13.4139 11.5875 13.8052Z" stroke="white" stroke-width="1.8" stroke-linecap="round" stroke-linejoin="round"/>
</svg>
