<svg width="8" height="14" viewBox="0 0 8 14" fill="none" xmlns="http://www.w3.org/2000/svg">
<path fill-rule="evenodd" clip-rule="evenodd" d="M7.56646 6.55837C7.6835 6.67556 7.74924 6.83441 7.74924 7.00003C7.74924 7.16566 7.6835 7.32451 7.56646 7.4417L1.31646 13.6917C1.19798 13.8021 1.04127 13.8622 0.879356 13.8593C0.717438 13.8565 0.56295 13.7909 0.448439 13.6764C0.333928 13.5619 0.268335 13.4074 0.265478 13.2455C0.262621 13.0836 0.322724 12.9268 0.433124 12.8084L6.24146 7.00003L0.433124 1.1917C0.322724 1.07322 0.262621 0.916517 0.265478 0.754599C0.268335 0.592682 0.333928 0.438194 0.448439 0.323683C0.56295 0.209173 0.717438 0.143579 0.879356 0.140722C1.04127 0.137866 1.19798 0.197968 1.31646 0.308368L7.56646 6.55837Z" fill="#062722"/>
</svg>
