<svg width="14" height="22" viewBox="0 0 14 22" fill="none" xmlns="http://www.w3.org/2000/svg">
<path d="M6.65975 1.03232C11.9427 1.03232 13.0502 5.46325 13.0502 9.04124C13.0502 14.4087 10.4087 20.9692 4.01924 20.9692V20.2026C9.64126 20.2026 11.5162 12.1092 8.44922 11.6837C8.41787 11.6789 8.38653 11.677 8.35518 11.677C7.79669 11.677 7.26954 12.3647 5.97873 12.3647C3.33727 12.3647 0.866766 10.0652 0.95225 6.65623C1.03773 3.58925 3.50823 1.03327 6.6607 1.03327M6.65975 0.082493C4.89592 0.082493 3.23468 0.771116 1.98471 2.02204C0.755636 3.25206 0.0508656 4.88766 0.0024245 6.62869C-0.0450668 8.52739 0.606507 10.2665 1.83653 11.5279C2.94308 12.6629 4.45331 13.3136 5.97873 13.3136C6.98175 13.3136 7.64282 12.983 8.07974 12.7646C8.17283 12.718 8.2963 12.6563 8.36279 12.6316C9.02102 12.7807 8.97163 13.9879 8.95453 14.2339C8.87569 15.3813 8.34569 16.6303 7.53929 17.5735C6.88391 18.3391 5.74222 19.2519 4.01924 19.2519C3.49494 19.2519 3.06941 19.6774 3.06941 20.2017V20.9682C3.06941 21.4925 3.49494 21.918 4.01924 21.918C7.25149 21.918 9.9186 20.3983 11.7337 17.5241C13.1737 15.2436 14 12.151 14 9.0403C14 6.65433 13.546 4.6901 12.6494 3.20362C12.0633 2.23195 11.2892 1.47304 10.3489 0.949683C9.31356 0.374089 8.07309 0.081543 6.65975 0.081543V0.082493Z" fill="#868E96"/>
</svg>
