<svg width="14" height="18" viewBox="0 0 14 18" fill="none" xmlns="http://www.w3.org/2000/svg">
<path fill-rule="evenodd" clip-rule="evenodd" d="M6.61667 17.6258L6.675 17.6592L6.69833 17.6725C6.79086 17.7225 6.89439 17.7487 6.99958 17.7487C7.10477 17.7487 7.20831 17.7225 7.30083 17.6725L7.32417 17.66L7.38333 17.6258C7.70926 17.4326 8.0273 17.2263 8.33667 17.0075C9.13756 16.4421 9.88587 15.8056 10.5725 15.1058C12.1925 13.4475 13.875 10.9558 13.875 7.75C13.875 5.92664 13.1507 4.17795 11.8614 2.88864C10.572 1.59933 8.82336 0.875 7 0.875C5.17664 0.875 3.42795 1.59933 2.13864 2.88864C0.849328 4.17795 0.125 5.92664 0.125 7.75C0.125 10.955 1.80833 13.4475 3.4275 15.1058C4.11387 15.8056 4.86189 16.442 5.6625 17.0075C5.97214 17.2263 6.29045 17.4326 6.61667 17.6258ZM7 10.25C7.66304 10.25 8.29893 9.98661 8.76777 9.51777C9.23661 9.04893 9.5 8.41304 9.5 7.75C9.5 7.08696 9.23661 6.45107 8.76777 5.98223C8.29893 5.51339 7.66304 5.25 7 5.25C6.33696 5.25 5.70107 5.51339 5.23223 5.98223C4.76339 6.45107 4.5 7.08696 4.5 7.75C4.5 8.41304 4.76339 9.04893 5.23223 9.51777C5.70107 9.98661 6.33696 10.25 7 10.25Z" fill="#E74644"/>
</svg>
