<svg width="12" height="12" viewBox="0 0 12 12" fill="none" xmlns="http://www.w3.org/2000/svg">
<path d="M11.8542 11.8531C11.7568 11.9505 11.6283 12 11.5007 12C11.3732 12 11.2447 11.9513 11.1474 11.8531L0.146689 0.855946C-0.0488965 0.660421 -0.0488965 0.344893 0.146689 0.149369C0.342275 -0.0461555 0.657903 -0.0461555 0.853489 0.149369L2.80347 2.09874C3.38939 1.47357 3.97783 0.944895 4.39335 0.591608C5.32427 -0.197203 6.67574 -0.197203 7.60666 0.591608C9.06055 1.82601 11.4999 4.23356 11.4999 6.50014C11.4999 7.66825 11.128 8.8028 10.4456 9.73846L11.8533 11.1457C12.0489 11.3413 12.0489 11.6568 11.8533 11.8523L11.8542 11.8531ZM2.04128 4.08839C1.93047 3.97762 1.77434 3.92559 1.61904 3.94825C1.46375 3.97091 1.32776 4.06238 1.25222 4.2C0.746042 5.10797 0.500094 5.8607 0.500094 6.50182C0.500094 7.97035 1.07174 9.35077 2.11094 10.3897C3.15015 11.4277 4.53101 12 6 12C6.8579 12 7.71327 11.7969 8.47547 11.4126C8.61901 11.3404 8.7189 11.2036 8.74408 11.045C8.76926 10.8864 8.71638 10.7253 8.60222 10.612L2.04128 4.08839Z" fill="white"/>
</svg>
