<svg width="22" height="20" viewBox="0 0 22 20" fill="none" xmlns="http://www.w3.org/2000/svg">
<path d="M12.5001 19V11.5C12.5001 11.3011 12.5791 11.1103 12.7198 10.9697C12.8604 10.829 13.0512 10.75 13.2501 10.75H16.2501C16.449 10.75 16.6398 10.829 16.7804 10.9697C16.9211 11.1103 17.0001 11.3011 17.0001 11.5V19M12.5001 19H1.36011M12.5001 19H17.0001M17.0001 19H20.6401M19.2501 19V7.349M19.2501 7.349C18.6502 7.6951 17.949 7.82304 17.2656 7.71113C16.5821 7.59922 15.9583 7.25435 15.5001 6.735C14.9501 7.357 14.1461 7.75 13.2501 7.75C12.8244 7.75041 12.4035 7.66 12.0155 7.48479C11.6275 7.30959 11.2813 7.05363 11.0001 6.734C10.4501 7.357 9.64611 7.75 8.75011 7.75C8.32439 7.75041 7.90348 7.66 7.51548 7.48479C7.12748 7.30959 6.78132 7.05363 6.50011 6.734C6.04203 7.25351 5.41835 7.59858 4.73486 7.71067C4.05136 7.82276 3.35013 7.69498 2.75011 7.349M19.2501 7.349C19.6487 7.11891 19.989 6.80019 20.2447 6.41751C20.5004 6.03484 20.6646 5.59846 20.7247 5.14215C20.7847 4.68584 20.7389 4.22184 20.5909 3.78605C20.4429 3.35026 20.1966 2.95436 19.8711 2.629L18.6811 1.44C18.4001 1.15862 18.0188 1.00035 17.6211 1H4.37811C3.98057 1.00008 3.59931 1.15798 3.31811 1.439L2.12911 2.629C1.80435 2.95474 1.55873 3.3507 1.41118 3.78637C1.26364 4.22204 1.21811 4.68577 1.27811 5.14182C1.33811 5.59786 1.50204 6.03403 1.75725 6.41671C2.01246 6.79939 2.35215 7.11835 2.75011 7.349M2.75011 19V7.349M5.75011 16H9.50011C9.69902 16 9.88979 15.921 10.0304 15.7803C10.1711 15.6397 10.2501 15.4489 10.2501 15.25V11.5C10.2501 11.3011 10.1711 11.1103 10.0304 10.9697C9.88979 10.829 9.69902 10.75 9.50011 10.75H5.75011C5.5512 10.75 5.36043 10.829 5.21978 10.9697C5.07913 11.1103 5.00011 11.3011 5.00011 11.5V15.25C5.00011 15.664 5.33611 16 5.75011 16Z" stroke="#868E96" stroke-width="1.5" stroke-linecap="round" stroke-linejoin="round"/>
</svg>
