<svg width="12" height="12" viewBox="0 0 12 12" fill="none" xmlns="http://www.w3.org/2000/svg">
<path d="M8.11559 7.6855C8.30324 8.27623 8.43164 8.88444 8.50077 9.50025C8.50077 10.8809 7.38248 12 6.00284 12C4.62321 12 3.50491 10.8809 3.50491 9.50025C3.57404 8.88444 3.70244 8.27623 3.88933 7.6855C5.42547 6.8112 6.58022 6.8112 8.11559 7.6855ZM11.9985 5.66548C11.9985 2.54156 9.30911 0 6.00284 0C2.69658 0 0.00719463 2.54156 0.00719463 5.66548C-0.0383881 6.19387 0.134068 6.71769 0.483535 7.11531C1.31238 7.85808 2.28254 7.36543 3.28915 6.86518C4.11724 6.37557 5.04485 6.07983 6.0036 6C7.58608 5.94982 9.09562 7.37836 10.5277 7.49164C11.5601 7.47339 12 6.74278 12 5.66472L11.9985 5.66548Z" fill="white"/>
</svg>
